<?xml version="1.0" encoding="utf-8"?>
<!-- Generator: Adobe Illustrator 27.7.0, SVG Export Plug-In . SVG Version: 6.00 Build 0)  -->
<svg version="1.1" id="Camada_1" xmlns="http://www.w3.org/2000/svg" xmlns:xlink="http://www.w3.org/1999/xlink" x="0px" y="0px"
	 viewBox="0 0 16 16" style="enable-background:new 0 0 16 16;" xml:space="preserve">
<style type="text/css">
	.st0{fill:#E94C51;}
	.st1{fill:none;stroke:#E94C51;stroke-width:2;stroke-miterlimit:10;}
	.st2{fill:#424242;}
	.st3{fill:none;stroke:#424242;stroke-miterlimit:10;}
	.st4{fill:none;}
	.st5{fill:#575656;}
	.st6{fill:#7F7F80;}
	.st7{fill:none;stroke:#444444;stroke-miterlimit:10;}
	.st8{fill:none;stroke:#E52421;stroke-miterlimit:10;}
</style>
<g>
	<g>
		<g>
			<circle class="st0" cx="7.9" cy="9.52" r="5.7"/>
			<path class="st0" d="M11.05,3.1c-0.77-0.63-4.84-1.02-6.16-0.08L5.23,4.8l5.32,0.18L11.05,3.1z"/>
			<path class="st1" d="M7.83,4.66V3.9l0.12-0.63C8.05,2.7,8.19,2.14,8.38,1.59L8.7,0.77"/>
			<circle class="st2" cx="7.83" cy="9.59" r="5.35"/>
			<path class="st2" d="M10.45,3.41l-0.32,1.33C9.29,4.35,8.45,4.2,7.64,4.23L7.37,4.07L7.37,4.02C7.35,3.93,7.34,3.83,7.34,3.74
				c0-0.16,0.02-0.33,0.07-0.48l0.48-0.17C9.02,3.1,10.16,3.22,10.45,3.41z"/>
			<path class="st3" d="M7.88,4.75C7.83,3.64,8.14,2.49,8.49,1.45"/>
			<line class="st4" x1="7.66" y1="4.24" x2="7.64" y2="4.23"/>
			<line class="st4" x1="7.92" y1="3.07" x2="7.89" y2="3.08"/>
			<path class="st5" d="M7.37,4.07l0.59,0.15c-0.7,0.03-1.71,0.21-2.34,0.5L5.49,3.32C5.85,3.13,7.42,3.08,8.45,3.1L7.6,3.29
				C7.55,3.44,7.34,3.57,7.34,3.74c0,0.1,0.01,0.19,0.02,0.29L7.37,4.07z"/>
			<path class="st2" d="M6.55,4.09l0.35,0.25C6.35,4.48,6.22,4.47,5.63,4.72L5.49,3.32C5.85,3.13,6.04,3.09,7.06,3.1L6.58,3.28
				C6.54,3.43,6.51,3.6,6.51,3.76c0,0.1,0.01,0.19,0.02,0.29L6.55,4.09z"/>
			<path class="st4" d="M7.04,13.98c-0.2-0.04-0.39-0.09-0.58-0.15c-2.61-1.45-3.54-6.4-0.13-8.35c0.25-0.09,0.51-0.16,0.78-0.21
				C4.64,6.61,4.18,12.07,7.04,13.98z"/>
			<path class="st0" d="M6.46,13.83c-1.75-0.59-3.01-2.25-3.01-4.2c0-1.9,1.2-3.53,2.88-4.15C2.92,7.43,3.85,12.38,6.46,13.83z"/>
			<path class="st5" d="M9.48,12.77l1.27,0.19c-0.77,0.66-1.77,1.06-2.87,1.06c-0.29,0-0.57-0.03-0.84-0.08
				c-2.86-1.91-2.4-7.37,0.07-8.72h0c0.25-0.04,0.51-0.07,0.77-0.07c1.1,0,2.11,0.4,2.88,1.07L9.25,6L8.97,6.19
				C7.03,8.38,8.16,11.86,9.48,12.77z"/>
			<path class="st6" d="M12.32,9.58c0,1.35-0.61,2.56-1.56,3.38l-1.27-0.19c-1.32-0.92-2.46-4.39-0.51-6.58l0.28-0.19l1.52,0.23h0
				C11.72,7.02,12.32,8.23,12.32,9.58z"/>
			<line class="st7" x1="7.12" y1="5.3" x2="7.12" y2="5.3"/>
			<path class="st8" d="M6.33,5.48"/>
			<path class="st8" d="M6.4,5.44"/>
			<line class="st4" x1="10.78" y1="12.97" x2="10.78" y2="12.97"/>
			<line class="st4" x1="10.78" y1="6.21" x2="10.78" y2="6.21"/>
		</g>
		<polygon class="st5" points="9.43,7.86 7.83,7.59 7.83,8.13 9.43,7.86 		"/>
	</g>
</g>
</svg>
